<svg width="23" height="20" viewBox="0 0 23 20" fill="none" xmlns="http://www.w3.org/2000/svg">
<path d="M20.9115 1.85676C19.7203 0.665541 18.1433 0.0144683 16.4601 0.0144683C14.777 0.0144683 13.1951 0.670364 12.0039 1.86159L11.3817 2.48372L10.75 1.85194C9.55874 0.660719 7.97205 0 6.28891 0C4.61059 0 3.02872 0.655896 1.84232 1.8423C0.651099 3.03352 -0.00479636 4.61539 2.64081e-05 6.29853C2.64081e-05 7.98167 0.660745 9.55872 1.85197 10.7499L10.9091 19.8071C11.0345 19.9325 11.2033 20 11.3673 20C11.5313 20 11.7001 19.9373 11.8254 19.8119L20.9019 10.7692C22.0931 9.57801 22.749 7.99614 22.749 6.313C22.7538 4.62985 22.1028 3.04799 20.9115 1.85676ZM19.9856 9.84808L11.3673 18.4326L2.76829 9.83362C1.82303 8.88835 1.30217 7.63444 1.30217 6.29853C1.30217 4.96262 1.81821 3.70871 2.76347 2.76827C3.70391 1.82783 4.95783 1.30697 6.28891 1.30697C7.62482 1.30697 8.88356 1.82783 9.82882 2.77309L10.9188 3.86303C11.1744 4.11864 11.5843 4.11864 11.8399 3.86303L12.9202 2.78273C13.8655 1.83747 15.1242 1.31661 16.4553 1.31661C17.7864 1.31661 19.0403 1.83747 19.9856 2.77791C20.9308 3.72317 21.4469 4.97709 21.4469 6.313C21.4517 7.6489 20.9308 8.90282 19.9856 9.84808Z" fill="url(#paint0_linear)"/>
<defs>
<linearGradient id="paint0_linear" x1="20.6874" y1="-14.5" x2="2.14873" y2="-11.8426" gradientUnits="userSpaceOnUse">
<stop stop-color="#952A97"/>
<stop offset="1" stop-color="#13A4CD"/>
</linearGradient>
</defs>
</svg>
