<svg width="84" height="80" viewBox="0 0 84 80" fill="none" xmlns="http://www.w3.org/2000/svg">
<g opacity="0.5" filter="url(#filter0_f)">
<path d="M39.984 28.2731V23.3591H2.058V28.2731H18.396V32.1791H3.864V60.0671H8.652V48.8951C10.836 50.4911 13.818 52.7591 15.33 54.1451L18.354 51.0371C16.758 49.7771 13.692 47.5931 11.55 46.1651L8.652 48.8111V36.8411H18.396V42.4691C16.758 41.2511 13.818 39.4031 11.76 38.1851L8.904 40.9151C11.046 42.3431 14.028 44.3591 15.498 45.6191L18.396 42.5951V59.5631H23.31V48.8111C25.536 50.4071 28.644 52.6331 30.198 53.9351L33.138 50.7851C31.5 49.4831 28.224 47.3411 25.998 45.9551L23.31 48.6011V36.8411H33.474V54.7751C33.474 55.4051 33.264 55.5731 32.55 55.6151C31.878 55.6571 29.484 55.6571 27.426 55.5731C28.098 56.7491 28.77 58.6811 29.022 59.9411C32.256 59.9411 34.65 59.8571 36.204 59.1431C37.884 58.3871 38.388 57.2111 38.388 54.8171V32.1791H23.31V28.2731H39.984ZM23.688 40.9151C25.914 42.3431 29.022 44.3591 30.534 45.6191L33.432 42.4271C31.794 41.2511 28.602 39.3611 26.46 38.1011L23.688 40.9151ZM71.568 26.1311H54.138V24.7871H71.568V26.1311ZM71.568 29.9951H54.138V28.6091H71.568V29.9951ZM76.608 22.1831H49.308V32.5571H76.608V22.1831ZM82.068 33.8171H44.058V37.3871H82.068V33.8171ZM53.256 46.7111V45.2411H60.564V46.7111H53.256ZM53.256 41.2931H60.564V42.7631H53.256V41.2931ZM72.702 42.7631H65.352V41.2931H72.702V42.7631ZM72.702 46.7111H65.352V45.2411H72.702V46.7111ZM65.352 55.4891V53.9771H78.372V50.7431H65.352V49.3991H77.574V38.6471H48.552V49.3991H60.564V50.7431H47.712V53.9771H60.564V55.4891H43.974V59.1011H82.152V55.4891H65.352Z" fill="url(#paint0_linear)"/>
</g>
<path d="M18.3945 64.2872L18.484 64.3193L18.4648 64.2425L18.3945 64.2872ZM10.9047 42.5125L10.9431 42.4486L10.8855 42.4358L10.9047 42.5125ZM19.5124 50.1232C19.4655 50.153 19.4548 50.1829 19.4804 50.2127C19.5187 50.2938 19.5762 50.3066 19.653 50.2513C19.6829 50.2257 19.6936 50.1959 19.6851 50.1617C19.6808 50.1447 19.6489 50.1255 19.5892 50.1041L19.5124 50.1232ZM21.4987 53.2968L21.4922 53.3799L21.5626 53.3352L21.4987 53.2968ZM15.6958 64.253C15.6489 64.2103 15.6255 64.189 15.6255 64.189C15.5701 64.1847 15.5466 64.1996 15.5551 64.2337C15.5465 64.3446 15.5827 64.3808 15.6638 64.3425C15.6638 64.3425 15.6744 64.3127 15.6958 64.253ZM14.807 64.1755C14.7516 64.1712 14.7153 64.1712 14.6983 64.1755C14.6983 64.1755 14.679 64.2074 14.6406 64.2713C14.7003 64.2927 14.7301 64.3034 14.7301 64.3034C14.7685 64.3119 14.8005 64.2949 14.8261 64.2523C14.8261 64.2523 14.8197 64.2267 14.807 64.1755ZM18.7065 58.1227L18.6169 58.1994L18.7 58.2058L18.7065 58.1227ZM11.6108 62.5806C11.5084 62.6061 11.502 62.653 11.5915 62.7212C11.617 62.7511 11.6448 62.7533 11.6746 62.7277C11.6746 62.7277 11.6746 62.6915 11.6747 62.619L11.6108 62.5806ZM23.3978 45.7587C23.3125 45.7799 23.289 45.831 23.3273 45.9121C23.3571 45.959 23.3805 45.9803 23.3976 45.9761C23.4914 45.989 23.5362 45.9506 23.532 45.8611C23.5321 45.7886 23.4873 45.7545 23.3978 45.7587ZM21.953 45.1947C21.9488 45.1052 21.9147 45.0412 21.8508 45.0028C21.8082 44.9772 21.7698 44.9686 21.7357 44.9771C21.6462 44.9813 21.6056 45.0367 21.6141 45.1433C21.6012 45.2371 21.6353 45.301 21.7163 45.3352C21.7418 45.3651 21.7716 45.3758 21.8058 45.3673C21.8953 45.3631 21.9444 45.3055 21.953 45.1947ZM15.1838 64.7066C15.1327 64.6469 15.1072 64.617 15.1072 64.617C15.0176 64.6212 14.9856 64.6745 15.0111 64.7768C15.0239 64.828 15.0473 64.8493 15.0814 64.8408C15.1709 64.8367 15.2051 64.7919 15.1838 64.7066ZM11.2651 47.4497C11.2268 47.3687 11.1693 47.3559 11.0925 47.4112C11.0626 47.4368 11.0434 47.4687 11.0348 47.5071C11.0348 47.5796 11.0752 47.6329 11.1562 47.6671C11.1946 47.6756 11.2287 47.6671 11.2586 47.6416C11.3183 47.5905 11.3205 47.5265 11.2651 47.4497ZM11.2091 61.0774C11.303 61.0178 11.3158 60.9603 11.2477 60.9048C11.2136 60.8408 11.1582 60.8003 11.0815 60.7831C11.0005 60.749 10.9323 60.766 10.8768 60.8341C10.8384 60.898 10.8468 60.9684 10.9022 61.0452C10.9959 61.1305 11.0982 61.1413 11.2091 61.0774ZM22.457 46.6724C22.406 46.4677 22.3081 46.2928 22.1632 46.1477C22.0653 46.0453 21.9523 46.0282 21.8243 46.0963C21.5727 46.2496 21.4659 46.4754 21.504 46.7739C21.5082 46.9359 21.5677 47.066 21.6828 47.1641C21.8021 47.2793 21.9384 47.3178 22.092 47.2796C22.2625 47.2371 22.3713 47.1285 22.4184 46.9537C22.4184 46.9537 22.4312 46.8599 22.457 46.6724ZM13.0772 60.1773L13.0773 60.0685C12.7362 60.1535 12.5485 60.2003 12.5144 60.2088C12.3353 60.2896 12.12 60.2617 11.8686 60.1251C11.8302 60.1165 11.7919 60.108 11.7535 60.0994C11.681 60.0994 11.6277 60.1398 11.5935 60.2208C11.5423 60.306 11.5593 60.4105 11.6444 60.5342C11.7083 60.6451 11.8021 60.6942 11.9257 60.6815C12.1389 60.6646 12.2881 60.6456 12.3734 60.6243C12.497 60.6116 12.6015 60.5584 12.6869 60.4647C12.5973 60.5414 12.7274 60.4093 13.0773 60.0685L13.0772 60.1773ZM12.5901 61.4942C12.5687 61.6264 12.5601 61.701 12.5644 61.718C12.5771 61.7692 12.6026 61.8353 12.6409 61.9163C12.7005 62.0102 12.7687 62.0294 12.8455 61.9741C12.9095 61.94 12.9202 61.8739 12.8777 61.7758C12.8394 61.6948 12.7329 61.5945 12.5582 61.475C12.6093 61.4623 12.6434 61.4538 12.6605 61.4495C12.7586 61.407 12.7778 61.375 12.7181 61.3536C12.7181 61.3536 12.6968 61.3771 12.6541 61.4239L12.5901 61.4942ZM11.3554 62.1007L11.2915 62.0623L11.3107 62.0303L11.3554 62.1007ZM23.6451 48.2785C23.6451 48.351 23.7024 48.6175 23.8171 49.078C23.9106 49.4532 23.9701 49.7283 23.9955 49.9031C24.0082 50.0267 24.0017 50.1823 23.9759 50.3699C23.9288 50.6896 23.8688 51.0306 23.796 51.393C23.7832 51.4867 23.7192 51.5208 23.6041 51.4951C23.5657 51.4866 23.5487 51.4546 23.553 51.3992C23.5531 51.3267 23.5511 51.1732 23.547 50.9387C23.5344 50.7426 23.5302 50.5806 23.5346 50.4527C23.505 50.1159 23.3219 49.8898 22.9852 49.7744C22.9468 49.7658 22.9085 49.7572 22.8701 49.7487C22.6783 49.7059 22.5482 49.7655 22.4799 49.9274C22.4243 50.0681 22.3966 50.1384 22.3966 50.1384C22.3408 50.4965 22.3087 50.7309 22.3001 50.8418C22.3033 52.0909 22.1999 53.4572 21.9897 54.9407C21.9083 55.4139 21.8888 55.8082 21.9312 56.1237C21.9481 56.3369 21.9436 56.646 21.9177 57.051C21.9089 57.3068 21.9961 57.5115 22.1793 57.6651C22.3199 57.7931 22.3752 57.9786 22.3452 58.2216C22.3493 58.3111 22.3322 58.4603 22.2936 58.6692C22.1352 59.4876 22.0599 60.385 22.0676 61.3613C22.0716 61.6683 22.0671 61.9049 22.0542 62.0712C22.0368 62.5103 21.9405 62.9237 21.7654 63.3115C21.633 63.58 21.4603 63.7227 21.2471 63.7396C21.0339 63.7565 20.8356 63.8693 20.6521 64.078C20.5838 64.1675 20.5027 64.2783 20.4088 64.4104C20.268 64.5723 20.1762 64.6766 20.1335 64.7235C19.8903 65.0558 19.5895 65.3029 19.2312 65.4646C19.1971 65.4731 19.1481 65.4943 19.0841 65.5284C19.0031 65.5667 18.9476 65.5986 18.9178 65.6242C18.8026 65.671 18.6854 65.673 18.566 65.6303C18.4296 65.5918 18.3358 65.6152 18.2846 65.7004C18.2334 65.7856 18.1736 65.8367 18.1054 65.8537C17.9135 65.9559 17.6171 66.0388 17.2163 66.1024C16.9946 66.1577 16.7963 66.1618 16.6216 66.1147C16.6429 66.1275 16.4851 66.1125 16.1484 66.0696C15.607 66.0052 15.1232 65.8811 14.697 65.6975C13.8873 65.3557 13.2736 65.0014 12.8561 64.6344C12.8135 64.6088 12.7496 64.5703 12.6644 64.5191C12.5749 64.4508 12.5089 64.4039 12.4662 64.3783C12.3299 64.2673 12.2533 64.1415 12.2363 64.0008C12.2067 63.7364 12.064 63.5636 11.8083 63.4824C11.5355 63.4055 11.3054 63.2092 11.1181 62.8935C11.05 62.7656 10.9117 62.5011 10.7031 62.1002C10.5328 61.7803 10.3796 61.5286 10.2433 61.3452C10.1581 61.2215 10.0943 61.0381 10.0519 60.7951C9.95008 60.1683 9.9013 59.8634 9.90555 59.8805C9.89711 59.7739 9.86311 59.6374 9.80356 59.4711C9.76107 59.3005 9.7292 59.1726 9.70796 59.0873C9.66546 58.9168 9.61665 58.6481 9.56153 58.2815C9.53179 58.1621 9.48298 57.8934 9.41511 57.4756C9.36424 57.1259 9.32183 56.8466 9.2879 56.6377C9.14785 55.8574 9.06532 55.1262 9.0403 54.444C9.01522 53.8344 8.98787 53.3973 8.95824 53.133C8.94555 53.0093 8.93295 52.777 8.92044 52.4359C8.92068 52.146 8.90808 51.9136 8.88265 51.7388C8.89563 51.5001 8.89806 51.1462 8.88992 50.6773C8.86047 50.1955 8.85436 49.8438 8.8716 49.6221C8.86747 49.4601 8.86774 49.1339 8.8724 48.6436C8.89407 48.2216 8.90927 47.8827 8.918 47.6269C8.91806 47.5544 8.93356 46.8531 8.9645 45.523C8.97317 45.3396 8.97967 45.2203 8.98398 45.1649C9.02683 44.9006 9.05696 44.5489 9.07437 44.1098C9.11321 43.5385 9.14335 43.1868 9.16477 43.0547C9.25083 42.0912 9.31525 41.5136 9.35804 41.3218C9.34967 41.1427 9.39491 40.5608 9.49377 39.5761C9.56685 38.8514 9.63768 38.2631 9.70626 37.8112C9.87784 36.5366 10.0086 35.6073 10.0986 35.0233C10.1372 34.8145 10.2913 34.0515 10.561 32.7343C10.6423 32.3336 10.8493 32.0013 11.1821 31.7372C11.3954 31.5754 11.6449 31.486 11.9305 31.4692C12.2034 31.4737 12.4698 31.5251 12.7298 31.6234C12.9088 31.6875 13.0452 31.7622 13.1389 31.8475C13.7353 32.4236 13.9866 32.6689 13.8929 32.5836C14.1655 32.8055 14.3166 33.1573 14.3461 33.6391C14.3374 33.75 14.3118 33.865 14.269 33.9844C14.2263 34.1037 14.1451 34.3232 14.0255 34.6429C13.6538 35.6231 13.3737 36.644 13.1852 37.7054C13.0139 38.6901 12.8766 39.7387 12.7734 40.8514C12.726 41.461 12.6616 42.0024 12.5802 42.4755C12.4516 43.2684 12.4084 43.9313 12.4506 44.4643C12.4676 44.5325 12.4758 45.0015 12.4751 45.8712C12.4873 46.5022 12.4849 46.856 12.4678 46.9327C12.4721 46.8773 12.4207 47.18 12.3136 47.8407C12.2578 48.1988 12.2595 48.7871 12.3185 49.6057C12.3142 49.6611 12.3354 49.8189 12.3821 50.079C12.4542 50.5139 12.375 50.8869 12.1445 51.1979C12.1061 51.2618 12.0485 51.3577 11.9716 51.4856C11.7795 51.8052 11.807 52.0972 12.054 52.3617C12.054 52.3617 12.1392 52.4492 12.3096 52.6241C12.5226 52.8247 12.6184 53.0635 12.5968 53.3406C12.5795 53.6348 12.6325 54.0292 12.7557 54.5238C12.8534 54.9886 12.8936 55.3318 12.8764 55.5535C13.0795 57.4594 13.3085 58.8516 13.5636 59.73C13.6529 60.0157 13.7423 60.229 13.8317 60.3697C14.0062 60.6342 14.1318 60.9199 14.2083 61.227C14.272 61.4828 14.4678 61.8688 14.7957 62.3849C14.7999 62.402 14.8169 62.434 14.8467 62.4809C15.2556 62.9587 15.6031 62.9356 15.8892 62.4114C15.9788 62.2623 16.0343 62.1579 16.0557 62.0982C16.201 61.6635 16.3613 61.1797 16.5365 60.6469C16.6605 60.2719 16.7673 59.9373 16.8571 59.6432C16.9768 59.1786 17.1242 58.8611 17.2991 58.6907C17.6835 57.8341 17.8908 57.248 17.9209 56.9326C17.9638 56.5958 18.0689 55.7454 18.2363 54.3812C18.3092 53.9464 18.4033 53.5607 18.5187 53.224C18.7238 52.6657 18.8522 52.0177 18.904 51.2802C18.904 51.2802 18.9577 50.6962 19.0653 49.5281C19.1169 49.0081 19.147 48.6926 19.1556 48.5818C19.1645 48.1085 19.2416 47.6545 19.3869 47.2198C19.4382 47.0621 19.4553 46.9854 19.4383 46.9896C19.5324 46.6401 19.5454 46.3289 19.4774 46.056C19.4519 45.9537 19.4243 45.8428 19.3946 45.7234C19.3861 45.6893 19.3712 45.6296 19.3499 45.5443C19.3329 45.4761 19.3266 45.4142 19.3309 45.3588C19.2459 45.0177 19.3101 44.73 19.5235 44.4957C19.5235 44.4957 19.6024 44.4126 19.7603 44.2464C19.9566 44.0164 20.0378 43.7607 20.0039 43.4793C19.9109 42.5967 19.7238 41.9186 19.4428 41.4452C19.3449 41.2703 19.3067 41.0806 19.3282 40.8759C19.3411 40.7822 19.3668 40.6308 19.4053 40.422C19.4438 40.2131 19.4674 40.0532 19.476 39.9424C19.5232 39.6227 19.485 39.3605 19.3616 39.1557C19.2552 38.9467 19.0829 38.4734 18.8448 37.7356C18.7427 37.3987 18.7089 37.0811 18.7432 36.7827C18.8032 36.4416 18.8187 35.7041 18.7898 34.57C18.7772 34.3014 18.7821 33.5937 18.8043 32.4469C18.8048 31.9396 18.9799 31.5155 19.3298 31.1747C19.5218 31.0001 19.7307 30.9299 19.9567 30.9642C19.9353 30.9514 20.287 31.0178 21.0117 31.1633C21.3697 31.2191 21.6041 31.3962 21.7147 31.6947C21.7615 31.8098 21.8574 31.8675 22.0023 31.8676C22.0748 31.8677 22.1494 31.8762 22.2261 31.8934C22.3028 31.9105 22.3603 31.9596 22.3987 32.0406C22.5008 32.305 22.5581 32.5715 22.5707 32.8401C22.5747 33.1471 22.5787 33.4178 22.5828 33.6523C22.5869 33.8143 22.542 33.9613 22.4481 34.0934C22.4353 34.1147 22.4012 34.1595 22.3457 34.2276C22.2902 34.2958 22.2475 34.3427 22.2177 34.3682C22.1707 34.4705 22.1813 34.5856 22.2494 34.7136C22.2536 34.7306 22.2706 34.7626 22.3005 34.8095C22.4538 34.9887 22.5261 35.2062 22.5173 35.462C22.5122 36.5321 22.5138 37.1929 22.5221 37.4445C22.5091 37.6832 22.558 37.9156 22.6686 38.1416C22.7282 38.2355 22.7559 38.3463 22.7515 38.4742C22.7894 39.0626 22.8146 39.4911 22.8272 39.7597C22.8223 40.5399 22.9837 41.2605 23.3114 41.9216C23.4051 42.0794 23.4433 42.2692 23.426 42.4908C23.4217 42.5463 23.4111 42.5761 23.394 42.5803C23.3257 42.6698 23.2767 42.6549 23.247 42.5355C22.8773 40.979 22.6203 39.9109 22.4758 39.3309C22.4036 39.041 22.293 38.67 22.1442 38.2179C22.1187 38.1156 22.0569 38.0132 21.959 37.9108C21.8866 37.8383 21.7992 37.8148 21.6968 37.8403C21.5902 37.8487 21.5135 37.9041 21.4665 38.0063C21.4109 38.147 21.3832 38.2173 21.3832 38.2173C21.2589 38.9548 21.2605 39.6156 21.3879 40.1998C21.4516 40.5281 21.5387 40.914 21.6492 41.3575C21.8148 42.0952 21.8954 42.6729 21.8908 43.0907C21.8906 43.2357 21.9203 43.4275 21.9798 43.6663C22.001 43.8241 22.0372 43.9328 22.0883 43.9926C22.314 44.2443 22.4907 44.5898 22.6182 45.029C22.6182 45.029 22.6288 45.0716 22.6501 45.1569C22.7097 45.2508 22.8056 45.3084 22.9377 45.3298C23.0698 45.3512 23.1807 45.3236 23.2703 45.247C23.4026 45.1234 23.4879 44.9935 23.5264 44.8571C23.535 44.7462 23.5672 44.5118 23.6229 44.1537C23.6358 44.0599 23.6763 44.0045 23.7446 43.9875C23.8768 43.9365 23.9705 43.9856 24.0258 44.1348C24.0726 44.25 24.1003 44.3246 24.1088 44.3587C24.1257 44.4994 24.1278 44.6167 24.1149 44.7105C24.0848 44.9535 24.0527 45.1517 24.0185 45.3051C23.9372 45.6333 23.9326 45.9787 24.0048 46.3411C24.0431 46.4946 24.0067 46.6395 23.8958 46.7759C23.7038 46.9505 23.6311 47.1679 23.6778 47.428C23.716 47.5815 23.7437 47.6924 23.7607 47.7606C23.7733 47.9567 23.7305 48.1485 23.6323 48.336C23.624 48.012 23.5752 47.7434 23.4859 47.5301C23.4816 47.5131 23.4476 47.4491 23.3837 47.3382C23.3283 47.2614 23.2601 47.2422 23.1791 47.2805C22.8721 47.357 22.7206 47.5125 22.7247 47.7469C22.7669 48.2074 22.8434 48.5869 22.954 48.8854C22.9837 49.0048 23.0518 49.0966 23.1584 49.1606C23.2265 49.2161 23.2884 49.2097 23.3438 49.1416C23.4292 49.0478 23.4783 48.9903 23.4911 48.969C23.4954 48.9136 23.5467 48.6834 23.6451 48.2785ZM31.7943 61.4652L31.7239 61.51L31.807 61.5164L31.7943 61.4652ZM30.8614 60.4477C30.7591 60.4732 30.7505 60.5115 30.8358 60.5628C30.84 60.5798 30.8635 60.5649 30.9062 60.5181L30.8614 60.4477ZM33.6012 26.0705C33.5628 26.0619 33.5372 26.0683 33.5244 26.0896C33.4732 26.1748 33.4923 26.2154 33.5819 26.2112C33.5819 26.2112 33.6032 26.1877 33.6459 26.1409L33.6012 26.0705ZM38.6103 39.4145C38.8192 39.3806 38.8704 39.2954 38.764 39.1589C38.7384 39.129 38.7064 39.1098 38.6681 39.1012C38.5189 39.0841 38.4528 39.1458 38.4697 39.2865C38.4696 39.359 38.5165 39.4017 38.6103 39.4145ZM39.5676 33.986C39.606 33.9221 39.6252 33.8901 39.6252 33.8901C39.5827 33.792 39.5251 33.7792 39.4526 33.8516C39.4057 33.8814 39.3865 33.9134 39.395 33.9475C39.4333 34.0285 39.4908 34.0414 39.5676 33.986ZM40.0561 38.6739C40.1415 38.5802 40.2439 38.446 40.3634 38.2713C40.4958 38.0753 40.6067 37.9389 40.6963 37.8623C40.7347 37.7984 40.7924 37.7025 40.8692 37.5746C40.9076 37.5107 40.9354 37.4404 40.9525 37.3637C40.9654 37.2699 40.9399 37.2038 40.8759 37.1654C40.7907 37.1141 40.7182 37.1141 40.6585 37.1652C40.4836 37.2631 40.3599 37.3483 40.2874 37.4207C40.0016 37.6549 39.8074 37.9298 39.7048 38.2452C39.6792 38.2878 39.662 38.3645 39.6534 38.4753C39.6534 38.5478 39.6874 38.6118 39.7556 38.6673C39.8238 38.7228 39.892 38.742 39.9602 38.725L40.0561 38.6739ZM34.4308 28.2007C34.0636 28.8356 33.8672 29.1744 33.8416 29.217C33.6708 29.5494 33.5746 29.8904 33.553 30.24C33.5443 30.4233 33.5249 30.7089 33.4947 31.0969C33.4646 31.4848 33.4387 31.7811 33.4173 31.9857C33.3955 32.4802 33.3654 32.8682 33.3268 33.1495C33.0347 35.7584 32.8929 37.0799 32.9014 37.1141C32.8885 37.3528 32.8477 37.6256 32.7793 37.9325C32.6765 38.4653 32.6418 39.1624 32.6752 40.0236C32.6794 40.1856 32.692 40.3817 32.7131 40.612C32.7131 40.6844 32.7684 40.7612 32.8792 40.8423C32.9857 40.9063 33.0816 40.9277 33.1669 40.9065C33.2522 40.8853 33.2863 40.8768 33.2693 40.881C34.0582 40.5576 34.4911 40.3683 34.5679 40.3129C35.0797 40.0405 35.4402 39.8148 35.6492 39.6359C35.8284 39.4826 35.9223 39.3143 35.931 39.131C35.9738 38.9391 36.0464 38.758 36.1489 38.5876C36.4648 38.1103 36.691 37.746 36.8276 37.4946C37.4297 36.4207 37.8417 35.7112 38.0636 35.3661C38.1191 35.2979 38.1938 35.1615 38.2878 34.957C38.8557 33.8916 39.223 33.0755 39.3897 32.5086C39.441 32.3509 39.5308 32.093 39.659 31.735C39.7786 31.4154 39.8683 31.1575 39.9282 30.9615C40.0565 30.4585 40.1336 30.077 40.1594 29.8169C40.1896 29.2841 40.0621 28.8448 39.7767 28.4993C39.551 28.2475 39.3636 28.0406 39.2145 27.8785C38.8737 27.5286 38.4902 27.2618 38.064 27.0782C37.7998 26.9628 37.5355 26.92 37.2712 26.9496C36.6572 27.0301 36.1518 27.2194 35.7551 27.5175C35.3712 27.7943 34.9233 28.0327 34.4116 28.2327L34.4308 28.2007ZM43.2898 33.5478C43.3923 33.3773 43.4499 33.2815 43.4627 33.2602C43.4884 33.1451 43.4437 33.1109 43.3285 33.1577C43.2944 33.1662 43.2731 33.1897 43.2645 33.228C43.2645 33.228 43.2836 33.341 43.3218 33.567C43.2451 33.5499 43.1875 33.5733 43.1491 33.6372C43.1106 33.7011 43.1255 33.7246 43.1938 33.7076C43.262 33.6906 43.294 33.6373 43.2898 33.5478ZM30.7059 62.9864C30.7101 63.0034 30.7123 63.0119 30.7123 63.0119L30.725 63.0631L30.7059 62.9864ZM33.6572 27.9315L33.67 27.8739C33.6658 27.8569 33.6637 27.8483 33.6637 27.8483L33.6572 27.9315ZM37.013 45.4373C37.2175 45.5313 37.4348 45.6764 37.6649 45.8727C38.4275 46.5341 39.013 47.3937 39.4214 48.4513C39.4257 48.4684 39.5171 48.7264 39.6957 49.2253L39.6894 49.1998C39.391 49.1654 39.2418 49.1482 39.2418 49.1482C39.1139 49.1439 39.0413 49.2163 39.0242 49.3655C39.007 49.5147 38.9494 49.6106 38.8513 49.6531C38.6039 49.751 38.3672 49.8915 38.1411 50.0746L38.1922 50.0619C38.0258 50.2664 37.9915 50.4923 38.0894 50.7396L38.1149 50.842L38.1085 50.8164C37.8269 51.0677 37.7649 51.3277 37.9224 51.5964C37.9905 51.7244 38.0246 51.7884 38.0246 51.7884C38.0331 51.8225 38.0245 51.8608 37.9989 51.9034C37.9476 51.9887 37.8794 52.0057 37.7942 51.9544L37.6472 51.8008C37.6089 51.7923 37.4853 51.6963 37.2766 51.5128L37.3022 51.5064C36.6248 50.8237 36.0647 50.1752 35.6219 49.5609C35.46 49.3476 35.3152 49.1663 35.1875 49.017C34.7445 48.5477 34.1715 47.9567 33.4687 47.2442C33.3451 47.1119 33.2109 47.0457 33.0659 47.0456C32.9722 47.0327 32.9061 47.0583 32.8676 47.1222C32.7865 47.233 32.7502 47.3054 32.7587 47.3395C32.6346 47.932 32.549 48.3881 32.5018 48.7078C32.4504 49.0105 32.4374 49.2492 32.4629 49.424C32.5052 49.7396 32.4856 50.2426 32.4041 50.9332C32.3654 51.287 32.3886 51.6345 32.4736 51.9756C32.6859 52.9734 32.8235 54.1438 32.8863 55.4868C32.8904 55.7938 32.9477 56.0603 33.0583 56.2863C33.1945 56.6147 33.2518 56.9537 33.2302 57.3033C33.2258 57.4312 33.2682 57.7829 33.3572 58.3586C33.3615 58.3756 33.3464 58.5334 33.3121 58.8318L33.3313 58.7998C33.3907 59.1111 33.3649 59.3711 33.2539 59.5799C33.2325 59.6396 33.2431 59.7185 33.2857 59.8166C33.3027 59.8848 33.3197 59.953 33.3367 60.0212C33.3451 60.1278 33.3386 60.211 33.3173 60.2706C33.313 60.3261 33.3001 60.4561 33.2786 60.6607C33.2656 60.827 33.2357 60.9612 33.1887 61.0635C33.1375 61.1487 33.1545 61.2532 33.2396 61.3769C33.3205 61.4836 33.3716 61.5433 33.3929 61.5561C33.4355 61.6542 33.4525 61.7224 33.4439 61.7608C33.4268 61.8375 33.3926 62.0272 33.3412 62.3298C33.3112 62.5003 33.213 62.6154 33.0467 62.6749C32.9827 62.709 32.9187 62.743 32.8548 62.7771C32.6671 62.8963 32.6457 63.0285 32.7905 63.1735C32.9396 63.3357 33.1036 63.4125 33.2827 63.4041C33.3381 63.4085 33.3701 63.4277 33.3786 63.4618C33.4041 63.5641 33.3635 63.6195 33.257 63.628C33.0779 63.6363 32.8604 63.7086 32.6045 63.8448C32.6047 63.6274 32.6026 63.5102 32.5984 63.4931C32.5771 63.4078 32.5346 63.3097 32.4707 63.1988C32.4111 63.105 32.328 63.0623 32.2214 63.0707C32.1148 63.0792 32.0359 63.126 31.9847 63.2112C31.9335 63.2965 31.9163 63.4094 31.9333 63.5501C31.9501 63.8358 32.1141 63.9489 32.4254 63.8895C32.4254 63.8895 32.4915 63.8639 32.6237 63.8129C32.6958 64.3203 32.736 64.591 32.7445 64.6251C32.8125 64.8981 32.7632 65.2817 32.5965 65.7761C32.5025 66.0532 32.3426 66.1021 32.1168 65.9228C32.0955 65.91 32.0699 65.8801 32.0401 65.8332C31.9975 65.8076 31.9655 65.7884 31.9442 65.7756C31.8462 65.6732 31.7418 65.6539 31.6309 65.7178C31.6778 65.688 31.648 65.7135 31.5413 65.7944C31.3195 65.9222 31.1469 65.9199 31.0233 65.7876L30.6719 65.4676C30.4332 65.3096 30.2864 65.0473 30.2313 64.6806C30.1677 64.2074 30.1127 63.6957 30.0663 63.1457C30.0494 62.9325 30.1476 62.7813 30.3608 62.6919C30.412 62.6792 30.444 62.6621 30.4568 62.6408C30.525 62.5513 30.572 62.4853 30.5976 62.4427C30.6361 62.3063 30.6532 62.1933 30.6491 62.1038C30.6449 62.0143 30.6705 61.8992 30.7261 61.7585C30.7816 61.6179 30.8179 61.5092 30.8351 61.4325C30.8351 61.36 30.8011 61.296 30.7329 61.2405L30.2343 60.9843C30.1491 60.9331 30.1129 60.8606 30.1258 60.7668C30.1344 60.5835 30.1431 60.4727 30.1516 60.4343C30.1987 60.2595 30.2798 60.04 30.3952 59.7758C30.4379 59.6565 30.4295 59.5499 30.3698 59.456C30.1356 59.1702 30.0377 58.9229 30.0763 58.714C29.865 56.4116 29.7425 55.0473 29.7087 54.6209C29.6875 54.5356 29.6812 54.4013 29.6899 54.218C29.6943 54.0176 29.688 53.8833 29.671 53.8151C29.6585 53.5465 29.6546 53.0946 29.6594 52.4594C29.6598 51.8795 29.6474 51.4297 29.6221 51.11C29.6393 50.9608 29.6331 50.6453 29.6037 50.1635C29.5868 49.9503 29.6019 49.7201 29.649 49.4729C29.6962 49.1532 29.673 48.8057 29.5795 48.4304C29.5413 48.2769 29.5308 48.1256 29.5479 47.9764C29.5481 47.7589 29.5484 47.3603 29.5489 46.7805C29.5365 46.2945 29.5496 45.9108 29.5882 45.6294C29.5626 45.7445 29.5585 45.5463 29.5759 45.0347C29.5803 44.9068 29.5442 44.7981 29.4675 44.7085C29.1737 44.2563 29.0608 44.0942 29.129 44.2222C29.0693 44.1283 29.0332 44.0196 29.0205 43.8959C29.0036 43.7552 28.9184 43.6315 28.765 43.5248C28.7437 43.512 28.6393 43.4565 28.4518 43.3583L28.4326 43.3903C28.6162 43.0365 28.7827 42.7958 28.932 42.668C29.1667 42.4465 29.1541 42.2142 28.8942 41.9709L28.6258 41.7661L28.5938 41.7469C28.8198 41.7087 28.9328 41.6896 28.9328 41.6896C29.2654 41.5705 29.4639 41.349 29.5281 41.025C29.6222 40.603 29.6845 40.0531 29.7149 39.3753C29.7456 38.335 29.7888 37.6359 29.8445 37.2778C29.8531 37.167 29.849 37.005 29.8321 36.7918C29.7817 35.9348 29.7866 35.1184 29.8469 34.3425C29.8555 34.2317 29.8621 34.0761 29.8665 33.8757C29.8624 33.6412 29.8583 33.4792 29.8541 33.3897C29.8804 32.5498 29.913 31.7718 29.9519 31.0556C29.9692 30.7614 29.9566 30.5291 29.9141 30.3585C29.8675 30.0984 29.8719 29.8255 29.9276 29.5399C30.1115 28.8239 30.2101 28.129 30.2235 27.4554C30.2194 27.2209 30.241 26.9076 30.2882 26.5154C30.3354 26.1957 30.3867 25.9655 30.4423 25.8249L30.423 25.8568C30.419 25.6224 30.4169 25.5051 30.4169 25.5051C30.4083 25.616 30.462 25.1044 30.5781 23.9704C30.591 23.8042 30.6274 23.6593 30.6871 23.5357C30.7854 23.3482 30.8814 23.2246 30.9752 23.165C31.1629 23.0458 31.4338 22.8968 31.7878 22.718C31.8987 22.6542 32.0181 22.6244 32.146 22.6288C32.3847 22.6418 32.6106 22.6761 32.8237 22.7317C32.9175 22.7445 33.0198 22.7915 33.1306 22.8726C33.3734 23.0476 33.5673 23.2439 33.712 23.4614C33.9164 23.7728 34.0548 23.9648 34.1272 24.0373C34.157 24.0842 34.221 24.1227 34.319 24.1526C34.3957 24.1697 34.4682 24.1698 34.5364 24.1528C34.8136 24.1018 35.4424 24.081 36.423 24.0904C36.6575 24.0863 36.8131 24.0928 36.8898 24.1099C37.0092 24.1527 37.1988 24.1869 37.4589 24.2127C37.7232 24.2556 37.9129 24.2898 38.028 24.3155C38.2624 24.3839 38.4499 24.4459 38.5906 24.5014C38.9954 24.6723 39.281 24.8004 39.4472 24.8858C39.7327 25.014 39.9948 25.1932 40.2333 25.4237C40.4974 25.6839 40.7232 25.8994 40.9106 26.0701C41.0725 26.2109 41.194 26.2984 41.2749 26.3326C41.5179 26.4351 41.7309 26.5994 41.914 26.8255C41.9651 26.8853 42.127 27.0623 42.3996 27.3567C42.5487 27.5188 42.7041 27.7428 42.8659 28.0286C43.3895 29.0394 43.6193 29.4894 43.5555 29.3785C43.6151 29.4723 43.6704 29.6216 43.7214 29.8263C43.8361 30.2143 43.9297 30.5533 44.0019 30.8433C44.0146 30.9669 44.0166 31.1204 44.0079 31.3037C43.9821 31.5638 43.9841 31.7535 44.0138 31.8729C44.0606 32.0605 44.0647 32.2588 44.0261 32.4676C44.0005 32.5827 43.9918 32.6936 44.0003 32.8002C44.0722 33.4525 43.8585 34.1579 43.359 34.9164C42.9193 35.6237 42.5629 36.2288 42.2896 36.7317C41.9522 37.4135 41.408 38.1741 40.657 39.0133C40.4693 39.205 40.2688 39.3093 40.0556 39.3262C40.0044 39.339 39.9298 39.3666 39.8317 39.4092C39.5161 39.524 39.3987 39.7435 39.4795 40.0675C39.4922 40.1187 39.5199 40.1933 39.5624 40.2914C39.5879 40.3938 39.607 40.4705 39.6198 40.5217C39.6665 40.7093 39.628 40.8457 39.5043 40.9309L38.4485 41.7102C38.3077 41.7996 38.2394 41.9253 38.2436 42.0873C38.2434 42.2323 38.1879 42.3729 38.0769 42.5093C37.838 42.7862 37.5692 43.0162 37.2706 43.1993C37.1768 43.2589 37.0616 43.2694 36.9253 43.231C36.8869 43.2224 36.8379 43.2074 36.7782 43.1861C36.6972 43.1519 36.6376 43.1305 36.5992 43.122C36.5395 43.1006 36.4692 43.1091 36.3881 43.1474C36.1195 43.2324 35.919 43.4092 35.7866 43.6777C35.6371 43.9504 35.6732 44.2041 35.8947 44.4388C35.9245 44.4857 36.1971 44.7076 36.7127 45.1045C36.8235 45.1856 36.9257 45.3051 37.0193 45.4629L37.0257 45.4885L37.013 45.4373ZM40.7035 52.3981C40.84 52.3641 41.1278 52.392 41.5668 52.4819C41.6052 52.4905 41.6627 52.5396 41.7393 52.6292C41.799 52.723 41.833 52.8595 41.8413 53.0385L41.8157 53.0449C42.1312 53.075 42.3954 53.2266 42.6083 53.4996C42.8682 53.8153 43.0277 54.165 43.0871 54.5488C43.1338 54.8089 43.1614 54.956 43.1699 54.9901C43.2462 55.5145 43.4484 55.9261 43.7764 56.2248C43.8957 56.34 43.9148 56.453 43.8337 56.5638C43.7057 56.7044 43.5626 56.9302 43.4046 57.2413C43.3363 57.4033 43.2041 57.4543 43.008 57.3945C42.5349 57.2406 42.2196 57.0293 42.0621 56.7606C41.9727 56.6198 41.8129 56.4513 41.5829 56.255C41.4934 56.1867 41.4253 56.095 41.3785 55.9798C41.2976 55.8007 41.1506 55.6833 40.9375 55.6277C40.9162 55.6149 40.8438 55.5786 40.7202 55.5189C40.6008 55.4761 40.5199 55.4057 40.4773 55.3076C40.4731 55.2906 40.3134 55.0133 39.9984 54.4759L40.0048 54.5015C40.0176 54.4802 40.0496 54.4631 40.1007 54.4504C40.169 54.4334 40.2116 54.4228 40.2287 54.4185C40.348 54.4612 40.4183 54.489 40.4396 54.5018C40.674 54.6427 40.9149 54.6642 41.1622 54.5664C41.1921 54.5408 41.3733 54.5047 41.7059 54.4581C41.7059 54.4581 41.708 54.4666 41.7122 54.4837C41.7507 54.3473 41.77 54.2791 41.77 54.2791C41.8255 54.1384 41.7744 54.0787 41.6166 54.0999C41.4035 54.1168 41.2287 54.0697 41.0924 53.9588L41.0731 53.9907C41.1118 53.7094 41.1353 53.5495 41.1439 53.5112C41.1697 53.2511 41.1251 53.0358 41.0101 52.8652C40.9846 52.8353 40.8888 52.669 40.7228 52.3661L40.7035 52.3981ZM39.9984 54.4759C39.7769 54.2412 39.6151 53.9917 39.513 53.7273C39.479 53.5908 39.4876 53.48 39.5388 53.3947C39.6542 53.1305 39.8483 52.9644 40.1212 52.8964C40.3941 52.8284 40.5795 52.9181 40.6773 53.1655C40.6943 53.2337 40.705 53.2763 40.7092 53.2934C40.7218 53.4895 40.8432 53.722 41.0731 53.9907L41.0924 53.9588C40.8621 54.0524 40.6233 54.1119 40.376 54.1373C40.3677 53.8857 40.3592 53.7429 40.3507 53.7088C40.3466 53.6192 40.2976 53.568 40.2038 53.5552C40.1313 53.5551 40.0673 53.5892 40.0119 53.6573C39.9564 53.7255 39.9179 53.8257 39.8965 53.9578C39.8879 54.0686 39.924 54.2499 40.0048 54.5015L39.9984 54.4759ZM38.1411 50.0746C38.5204 50.2156 38.761 50.4908 38.863 50.9001C38.8886 50.93 38.8864 50.9577 38.8566 50.9833C38.8267 51.0088 38.7947 51.0259 38.7606 51.0344C38.6498 51.0257 38.4324 50.9531 38.1085 50.8164L38.1149 50.842C38.2173 50.744 38.2685 50.695 38.2685 50.695C38.3496 50.5842 38.3667 50.4713 38.3199 50.3561C38.3156 50.3391 38.2731 50.241 38.1922 50.0619L38.1411 50.0746ZM40.7228 52.3661C40.4329 52.3659 40.2794 52.3679 40.2623 52.3721C40.0918 52.3422 39.9768 52.244 39.9172 52.0777C39.8917 51.9753 39.9216 51.9136 40.0069 51.8923C40.2201 51.8754 40.3906 51.9417 40.5183 52.091C40.5226 52.108 40.5843 52.2104 40.7035 52.3981L40.7228 52.3661ZM40.3209 51.0804C40.4275 51.072 40.4829 51.1125 40.4871 51.202C40.4828 51.2575 40.4593 51.2724 40.4167 51.2468C40.3528 51.2083 40.3273 51.1422 40.3401 51.0484L40.3209 51.0804ZM40.3401 51.0484C40.3103 51.0015 40.2784 50.9461 40.2444 50.8821C40.2827 50.9631 40.3082 51.0292 40.3209 51.0804L40.3401 51.0484ZM39.7334 50.1399L39.8037 50.2039L39.7653 50.1591L39.7334 50.1399ZM28.549 41.7852C28.5703 41.8705 28.5873 41.8662 28.6002 41.7725C28.5959 41.7554 28.6045 41.7533 28.6258 41.7661L28.549 41.7852ZM39.6894 49.1998C39.6894 49.1998 39.6915 49.2083 39.6957 49.2253L39.6894 49.1998ZM39.6886 50.1782L39.7334 50.1399L39.7653 50.1591L39.6886 50.1782ZM38.2603 52.8437C38.2432 52.848 38.2347 52.8501 38.2347 52.8501L38.2603 52.8437ZM38.7145 52.7034C38.6974 52.7077 38.6889 52.7098 38.6889 52.7098C38.6889 52.7098 38.6974 52.7077 38.7145 52.7034ZM38.2347 52.8501C38.4351 52.7821 38.5951 52.7332 38.7145 52.7034C38.7741 52.7248 38.7656 52.7269 38.6889 52.7098C38.5056 52.6286 38.3628 52.6733 38.2603 52.8437C38.2603 52.8437 38.2518 52.8458 38.2347 52.8501ZM40.2094 54.4505C40.2607 54.3652 40.3226 54.2502 40.3952 54.1053C40.3226 54.2502 40.2607 54.3652 40.2094 54.4505ZM53.5616 55.1457L53.4657 55.0881L53.4656 55.1968L53.5616 55.1457ZM61.0247 16.0593C61.0035 15.974 60.9502 15.942 60.8649 15.9632C60.818 15.9931 60.7988 16.025 60.8073 16.0591C60.7944 16.1529 60.8327 16.1977 60.9223 16.1935C61.0118 16.1893 61.046 16.1446 61.0247 16.0593ZM48.6025 27.7135L48.6792 27.6944L48.6089 27.6304L48.6025 27.7135ZM59.2863 22.6063C59.201 22.6276 59.169 22.6808 59.1902 22.7661C59.1987 22.8002 59.2222 22.8216 59.2605 22.8301C59.3671 22.8217 59.4077 22.7663 59.3822 22.664C59.3822 22.664 59.3502 22.6448 59.2863 22.6063ZM59.8183 21.1423L59.7991 21.0656L59.7288 21.1103L59.8183 21.1423ZM60.5951 17.4978C60.5482 17.4551 60.5248 17.4338 60.5248 17.4338C60.3116 17.3782 60.2092 17.4762 60.2176 17.7277C60.2218 17.7448 60.2474 17.7747 60.2942 17.8173C60.3582 17.8557 60.4285 17.8473 60.5053 17.7919C60.629 17.7068 60.6589 17.6087 60.5951 17.4978ZM57.6555 30.458C57.4807 30.4835 57.4316 30.5772 57.5082 30.7393C57.5337 30.7692 57.5657 30.7884 57.6041 30.7969C57.7575 30.8312 57.8301 30.7587 57.8217 30.5797C57.8004 30.4944 57.745 30.4538 57.6555 30.458ZM54.3738 47.2805C54.3483 47.1782 54.2994 47.127 54.2269 47.1269C53.9498 47.1054 53.826 47.2268 53.8557 47.4912C53.8556 47.5636 53.8982 47.6255 53.9834 47.6767C54.0644 47.7109 54.1369 47.7109 54.2008 47.6769C54.3374 47.5704 54.395 47.4383 54.3738 47.2805ZM54.6448 44.4414C54.598 44.3262 54.549 44.275 54.4978 44.2878C54.4253 44.2877 54.3507 44.3154 54.2739 44.3707C54.2312 44.4176 54.1864 44.4922 54.1394 44.5945C54.0369 44.8374 53.977 45.1059 53.9597 45.4001C53.9596 45.545 54.0213 45.6474 54.1449 45.7072C54.2514 45.7712 54.358 45.7628 54.4647 45.6819C54.5884 45.5967 54.6631 45.4966 54.6888 45.3815C54.7189 44.9936 54.7043 44.6802 54.6448 44.4414ZM56.5838 34.9912C56.5839 34.9187 56.5839 34.8825 56.5839 34.8825C56.5713 34.6864 56.4861 34.6351 56.3282 34.7288C56.1704 34.8225 56.0786 34.9993 56.0528 35.2594C56.0527 35.4043 56.1038 35.5003 56.2061 35.5473C56.5001 35.637 56.63 35.8674 56.5956 36.2382C56.5613 36.4642 56.4864 36.7817 56.371 37.1909C56.1357 38.1372 55.9902 38.8618 55.9343 39.3648C55.9257 39.4757 55.8809 39.5865 55.7998 39.6973L55.7805 39.7292C55.7423 39.5757 55.7232 39.499 55.7232 39.499C55.6466 39.3369 55.5485 39.307 55.4291 39.4092C55.2798 39.537 55.1923 39.6222 55.1667 39.6648C55.0472 39.8395 54.9468 40.0547 54.8656 40.3104C54.7501 40.7196 54.6667 41.1118 54.6152 41.4869C54.6066 41.5977 54.6172 41.6766 54.647 41.7235C54.7108 41.9069 54.6765 42.0966 54.5442 42.2926C54.4674 42.4204 54.4033 42.5632 54.352 42.7209C54.3178 42.8019 54.3113 42.9212 54.3325 43.079C54.3665 43.2879 54.4858 43.3669 54.6905 43.3159L55.151 43.2012C55.1891 43.4996 55.2103 43.6574 55.2145 43.6745C55.2442 43.8663 55.2121 44.0646 55.1181 44.2691C55.0199 44.5291 55.0602 44.7636 55.2391 44.9727C55.3157 45.0623 55.3263 45.1774 55.2707 45.318C55.1128 45.6291 55.0635 45.9403 55.1229 46.2516C55.1653 46.4946 55.163 46.7398 55.1159 46.987C55.0945 47.0467 55.0667 47.1895 55.0324 47.4154C55.0195 47.5816 55.0002 47.7223 54.9745 47.8374C54.7949 48.4981 54.69 49.0948 54.6597 49.6277C54.6468 49.794 54.5804 50.0732 54.4607 50.4653C54.3667 50.7424 54.3452 51.0195 54.3961 51.2966C54.5403 52.2389 54.5221 53.6202 54.3416 55.4405C54.2556 56.259 54.2168 56.8303 54.225 57.1543C54.2461 57.457 54.2287 57.8236 54.173 58.2542C54.1173 58.6122 53.9486 58.8807 53.6671 59.0595C53.5605 59.1404 53.4432 59.1787 53.3153 59.1743L53.3472 59.1936C52.8613 59.1335 52.5714 59.097 52.4776 59.0841C52.013 59.0368 51.5761 58.8468 51.1671 58.5139C51.0137 58.4072 50.9179 58.2771 50.8797 58.1236C50.9009 58.2088 50.8605 58.0468 50.7586 57.6374C50.7118 57.4498 50.6992 57.2899 50.7206 57.1578C50.7806 56.7443 50.7853 56.2178 50.7347 55.5782C50.6544 54.6744 50.7169 53.8708 50.9221 53.1675C51.0162 52.818 51.0718 52.5324 51.0891 52.3107C51.1407 51.7181 51.3268 50.9743 51.6473 50.0793C51.6473 50.0793 51.7862 49.6915 52.0639 48.9158C52.1152 48.7581 52.1282 48.5556 52.1028 48.3083L52.122 48.2763L52.1091 48.3339C52.0069 48.2144 51.9558 48.1547 51.9558 48.1547C51.8707 48.031 51.8409 47.9116 51.8666 47.7965C52.0334 47.0846 52.1661 46.49 52.2645 46.0126L52.4504 45.5587C52.5145 45.3797 52.5295 45.222 52.4955 45.0855C52.402 44.7103 52.3917 44.3052 52.4645 43.8704C52.7343 42.4083 52.8714 41.6858 52.8756 41.7029C53.0297 40.9399 53.1304 40.2898 53.1778 39.7527C53.225 39.288 53.2958 38.8084 53.39 38.314C53.6981 36.9329 53.8758 36.01 53.923 35.5454C53.9403 35.3237 54.0087 35.0893 54.1283 34.8421C54.2051 34.7143 54.2777 34.5694 54.3461 34.4074C54.4144 34.2455 54.4465 34.0835 54.4424 33.9215C54.4171 33.6017 54.4044 33.4056 54.4045 33.3331C54.3962 33.0091 54.469 32.6105 54.6229 32.1374C54.6656 32.0181 54.621 31.9115 54.4889 31.8176C54.4889 31.8176 54.4569 31.7984 54.393 31.7599L54.4186 31.7536C54.3888 31.7066 54.3655 31.5041 54.3487 31.146C54.3488 31.0735 54.351 30.9733 54.3554 30.8454C54.3725 30.6962 54.3748 30.596 54.362 30.5449C54.3623 30.255 54.2132 30.0928 53.9148 30.0585C53.1048 29.9342 52.4484 29.8441 51.9453 29.7883C51.2419 29.728 50.6089 29.5868 50.0464 29.3646C50.0251 29.3518 49.7885 29.2749 49.3367 29.1338C49.3452 29.1679 49.3559 29.1743 49.3687 29.153C48.5973 28.8199 48.1157 28.5956 47.924 28.4804C47.5362 28.2328 46.9992 28.0405 46.3129 27.9035C46.2191 27.8906 46.0784 27.8713 45.8909 27.8456C45.6863 27.8241 45.5456 27.8048 45.4689 27.7877C45.4689 27.7877 45.3985 27.7599 45.2579 27.7044C45.1386 27.6617 45.0619 27.5721 45.0279 27.4356C44.9939 27.2992 45.0196 27.1841 45.1049 27.0904C45.6382 26.6133 46.2331 26.3836 46.8897 26.4012C46.8556 26.4097 47.2563 26.4548 48.0918 26.5364C49.8695 26.6914 51.0845 26.8054 51.7367 26.8784C52.5722 26.9601 53.1392 27.0543 53.4375 27.1612C53.4375 27.1612 53.4269 27.1547 53.4056 27.1419C54.3861 27.2238 54.9594 27.2711 55.1257 27.284C55.2024 27.3012 55.3687 27.3141 55.6245 27.3228C55.9314 27.3188 56.1469 27.1655 56.2707 26.8629C56.3477 26.6626 56.416 26.4644 56.4759 26.2684C56.6041 25.9103 56.6619 25.597 56.6493 25.3284C56.6538 25.0556 56.7095 24.7337 56.8164 24.3629C56.8078 24.4013 56.8762 24.2031 57.0215 23.7684C57.1839 23.2569 57.4017 22.8222 57.6749 22.4643C58.0291 21.9956 58.3216 21.4608 58.5523 20.8599C58.6676 20.5957 58.6891 20.3548 58.6168 20.1373C58.5574 19.8985 58.6087 19.6684 58.7709 19.4468C58.8392 19.3573 58.9437 19.2316 59.0846 19.0697C59.2809 18.8397 59.426 18.5499 59.5201 18.2004C59.5672 18.0256 59.5225 17.8828 59.3862 17.7718C59.2925 17.6865 59.2648 17.5756 59.3033 17.4392C59.3289 17.3966 59.3823 17.2837 59.4635 17.1004C59.5616 16.9854 59.5766 16.9726 59.5083 17.0621C59.5083 17.0621 59.4827 17.0684 59.4315 17.0812C59.7858 16.54 59.9822 16.2375 60.0206 16.1736C60.2298 15.8497 60.3516 15.5024 60.386 15.1315C60.3988 15.1102 60.3988 15.074 60.3861 15.0228C60.3861 14.9503 60.3926 14.9034 60.4054 14.8821C60.4227 14.5155 60.5318 14.0807 60.7326 13.5778C60.7796 13.4755 60.8756 13.2795 61.0208 12.9897C61.1362 12.7255 61.2195 12.5145 61.2708 12.3568C61.3263 12.2162 61.4585 12.1289 61.6675 12.0949C61.7527 12.0737 61.8935 12.0568 62.0896 12.0441C62.2644 12.0187 62.4051 12.0018 62.5117 11.9933C62.8954 11.9339 63.3281 11.9982 63.8097 12.1862C63.9504 12.2418 64.0569 12.3058 64.1293 12.3783C64.3466 12.596 64.5361 12.8114 64.6979 13.0247C64.7746 13.1143 64.7852 13.2294 64.7296 13.3701C64.6826 13.4723 64.6271 13.5767 64.5631 13.6833C64.26 14.2117 63.9633 14.657 63.6731 15.0191C63.5195 15.2023 63.4276 15.3791 63.3977 15.5497C63.3464 15.7074 63.1841 16.0376 62.9108 16.5405C62.0141 18.2493 61.2729 20.1459 60.6871 22.2302C60.653 22.2387 60.621 22.2557 60.5911 22.2813C60.54 22.294 60.5805 22.2749 60.7127 22.2238C60.6358 22.3516 60.5889 22.4177 60.5718 22.4219C60.4309 22.6563 60.2539 22.8182 60.0406 22.9075C59.9724 22.9245 59.8978 22.9522 59.8168 22.9905C59.595 23.1182 59.5309 23.2972 59.6245 23.5275C59.6841 23.6213 59.7288 23.6917 59.7586 23.7386C59.8651 23.8752 59.8926 24.0223 59.8414 24.18C59.7345 24.5508 59.5465 24.9599 59.2776 25.4073C59.2264 25.4926 59.1111 25.6118 58.932 25.7652C58.6632 25.9952 58.5542 26.3212 58.605 26.7433C58.6219 26.9565 58.7369 27.0909 58.95 27.1465C58.9713 27.1593 58.9905 27.1636 59.0076 27.1593C59.0459 27.1679 59.0651 27.1722 59.0651 27.1722C59.3038 27.2576 59.3441 27.4197 59.1862 27.6583C59.0795 27.8117 59.1071 27.9226 59.2691 27.9909C59.3756 28.0549 59.4416 28.1019 59.4672 28.1318C59.5354 28.1872 59.5779 28.2491 59.5949 28.3173C59.6629 28.5902 59.6308 28.8247 59.4984 29.0207C59.4899 29.059 59.3682 29.2252 59.1335 29.5192L58.9354 29.3783C58.8289 29.3143 58.7905 29.342 58.8202 29.4614C58.8245 29.4784 58.8543 29.4891 58.9097 29.4934C58.9268 29.4892 59.0078 29.4871 59.1527 29.4872C59.0077 29.6321 58.9223 29.7258 58.8967 29.7684C58.4871 30.1603 58.1797 30.6354 57.9746 31.1937C57.902 31.4111 57.8421 31.6072 57.7951 31.7819C57.5771 32.434 57.3742 32.9284 57.1864 33.265C57.0967 33.4142 57.0625 33.5676 57.0837 33.7254C57.1133 33.9898 57.047 34.2689 56.8847 34.563C56.8719 34.5843 56.778 34.7164 56.603 34.9592L56.5838 34.9912ZM54.361 31.7407L54.4186 31.7536C54.4186 31.7536 54.41 31.7557 54.393 31.7599L54.361 31.7407ZM56.6158 35.0104C56.5945 34.9976 56.5838 34.9912 56.5838 34.9912L56.603 34.9592L56.6158 35.0104ZM55.8189 39.774L55.7805 39.7292C55.7805 39.7292 55.787 39.7186 55.7998 39.6973L55.8189 39.774ZM55.151 43.2012C55.1596 43.0903 55.2322 42.9817 55.3687 42.8752L55.3367 42.856C55.3195 43.0052 55.2576 43.1203 55.151 43.2012ZM64.5957 28.4301L64.6725 28.411L64.6022 28.347L64.5957 28.4301ZM63.0697 41.0654C63.0314 40.9843 62.9718 40.963 62.8907 41.0013C62.8566 41.0098 62.8438 41.0311 62.8523 41.0652C62.8394 41.159 62.8778 41.2038 62.9673 41.1996C63.0568 41.1954 63.091 41.1507 63.0697 41.0654ZM63.4952 29.1391C63.5336 29.1476 63.5719 29.1562 63.6103 29.1648C63.6104 29.0923 63.6104 29.056 63.6104 29.056C63.6104 29.056 63.5827 29.0539 63.5273 29.0496C63.5144 29.0709 63.5038 29.1007 63.4952 29.1391ZM72.5275 41.6167C72.5701 41.5699 72.5915 41.5464 72.5915 41.5464C72.583 41.4398 72.5362 41.3972 72.4509 41.4184C72.3997 41.4312 72.3805 41.4631 72.3932 41.5143C72.3804 41.6081 72.4251 41.6422 72.5275 41.6167ZM72.0718 35.8609C72.0505 35.7756 71.9908 35.7542 71.8927 35.7968C71.8629 35.8223 71.8522 35.8522 71.8607 35.8863C71.8819 35.9716 71.9331 35.995 72.0141 35.9567L72.0718 35.8609ZM68.7141 43.9797C68.7823 43.9627 68.8164 43.9542 68.8164 43.9542C68.8677 43.869 68.8677 43.7965 68.8166 43.7368C68.7442 43.6643 68.6803 43.6621 68.6248 43.7303C68.548 43.7856 68.5458 43.8496 68.6182 43.9221L68.7141 43.9797ZM65.081 29.2875C65.1023 29.3727 65.1534 29.3962 65.2345 29.3579C65.2686 29.3494 65.2814 29.3281 65.2729 29.294C65.2644 29.1874 65.2197 29.1533 65.1387 29.1916L65.081 29.2875ZM62.0069 42.5801C62.1135 42.5717 62.1306 42.5312 62.0582 42.4586C62.0326 42.4288 61.9985 42.4373 61.9558 42.4841L62.0069 42.5801ZM68.5439 25.4086C68.5227 25.3233 68.4737 25.2721 68.397 25.255C68.3074 25.2591 68.2477 25.3103 68.2178 25.4083C68.1835 25.5617 68.2602 25.6151 68.4479 25.5684C68.5331 25.5471 68.5652 25.4938 68.5439 25.4086ZM63.1061 27.9045C62.9442 27.7637 62.7823 27.7316 62.6202 27.8082C62.569 27.8209 62.5178 27.8699 62.4666 27.9552C62.4111 28.0233 62.4111 28.0958 62.4664 28.1726C62.5559 28.2409 62.6177 28.2708 62.6518 28.2623C62.882 28.2411 63.042 28.156 63.1316 28.0069L63.1061 27.9045ZM71.3317 41.507C71.3955 41.6179 71.4061 41.8055 71.3632 42.0698C71.3632 42.0698 71.3717 42.1039 71.3887 42.1721C71.4312 42.3427 71.5569 42.411 71.7658 42.3771C71.8554 42.3729 71.9087 42.3325 71.9258 42.2557C71.9814 42.0426 71.988 41.8145 71.9456 41.5715C71.9159 41.3796 71.8222 41.2218 71.6646 41.098C71.5453 40.9828 71.443 40.9721 71.3576 41.0658C71.2851 41.1382 71.2573 41.2085 71.2743 41.2768L71.3317 41.507ZM70.743 41.9798C70.709 41.8433 70.6195 41.775 70.4745 41.7749C70.4191 41.7706 70.385 41.7791 70.3722 41.8004C70.1717 41.9409 70.0138 42.1071 69.8986 42.2988C69.8047 42.4309 69.8045 42.5759 69.8982 42.7337C69.9919 42.8915 70.1176 42.9598 70.2753 42.9386C70.3649 42.9344 70.4374 42.8983 70.4929 42.8301C70.655 42.6085 70.7469 42.3592 70.7685 42.0821L70.743 41.9798ZM68.7597 42.963C68.8237 42.8564 68.8493 42.8501 68.8365 42.9438C68.8365 42.9438 68.8023 42.9523 68.7341 42.9693C68.8028 42.445 68.9288 42.0785 69.1123 41.8697C69.1678 41.8015 69.2319 41.6588 69.3045 41.4414C69.6165 40.5847 69.7788 40.1457 69.7916 40.1244C69.813 40.0648 69.8216 39.9902 69.8174 39.9006C69.7665 39.551 69.7967 39.1631 69.9079 38.7368C70.1816 37.6542 70.2785 36.4435 70.1986 35.1047C70.2073 34.9214 70.1905 34.672 70.1481 34.3565C70.1058 33.9685 70.0783 33.7126 70.0656 33.589C70.0575 33.12 69.9769 32.5785 69.8239 31.9645C69.5349 30.8771 69.3035 29.7663 69.1296 28.6321C69.1042 28.4573 69.0659 28.3038 69.0149 28.1716C68.849 27.7238 68.6767 27.2867 68.498 26.8602C68.4129 26.664 68.2936 26.5125 68.1402 26.4058C68.0763 26.3674 68.0038 26.3674 67.9228 26.4057C67.8418 26.444 67.8098 26.461 67.8268 26.4567C67.413 26.7591 67.1228 27.1212 66.9562 27.5432C66.8921 27.7222 66.7212 28.1633 66.4435 28.8665C66.2299 29.3907 66.0654 29.8212 65.95 30.1579C65.8859 30.3369 65.7877 30.5969 65.6552 30.9378C65.5057 31.283 65.4053 31.5345 65.3541 31.6922C65.3412 31.7135 65.134 32.2271 64.7325 33.2329L64.7517 33.2009C64.5933 33.9469 64.4971 34.3603 64.4629 34.4413C64.4245 34.5052 64.4158 34.6523 64.4369 34.8825C64.441 35.117 64.4153 35.3408 64.3597 35.554C64.3597 35.554 64.2613 35.9227 64.0646 36.66C64.056 36.6984 64.0091 36.7282 63.9238 36.7495C63.8556 36.7665 63.8066 36.7515 63.7768 36.7046C63.7555 36.6918 63.6873 36.6 63.5724 36.4294C63.5937 36.3698 63.6044 36.3399 63.6044 36.3399C63.6215 36.2632 63.5896 36.2077 63.5086 36.1736C63.3005 35.1928 63.1986 34.7472 63.2028 34.8368L63.2347 34.856C62.9704 34.8856 62.8297 34.9025 62.8126 34.9068C62.6761 34.9408 62.5291 34.9321 62.3714 34.8808C62.1241 34.9062 61.9748 34.9253 61.9237 34.938C61.8896 34.9465 61.8767 34.9678 61.8852 35.002C61.8767 35.0403 61.8937 35.0723 61.9363 35.0979C61.9619 35.1278 61.9917 35.1385 62.0258 35.13C62.0941 35.113 62.2156 35.0193 62.3906 34.8489C62.4456 35.3605 62.5731 35.7635 62.7733 36.0579C62.7733 36.0579 62.7988 36.124 62.8499 36.2562C62.9009 36.3884 62.9008 36.4971 62.8496 36.5823C62.4013 37.328 62.1836 37.6902 62.1964 37.6689C62.1579 37.8053 62.1387 37.8735 62.1387 37.8735C62.0618 38.0013 62.0597 38.0653 62.1321 38.0654C62.1833 38.0526 62.2025 37.9844 62.1899 37.8608C62.1899 37.8608 62.1814 37.7904 62.1645 37.6497C62.4202 37.7309 62.7782 37.8954 63.2384 38.143C63.362 38.2028 63.4515 38.2711 63.5068 38.3479C63.5537 38.3905 63.6921 38.5825 63.922 38.9238C64.0578 39.7595 64.1064 40.2093 64.068 40.2732C64.0296 40.3371 64.0231 40.4203 64.0486 40.5226C64.1124 40.706 64.1633 41.0919 64.2011 41.6802C64.1842 41.5395 64.2074 41.8508 64.2707 42.6139C64.2877 42.7546 64.3429 42.9401 64.4365 43.1704C64.5599 43.4477 64.7154 43.6716 64.9028 43.8423C65.1797 44.0813 65.3116 44.3926 65.2985 44.7763C65.2899 44.8871 65.2919 45.0406 65.3045 45.2367C65.3002 45.2922 65.3108 45.371 65.3363 45.4734C65.3703 45.6823 65.4789 45.8274 65.6621 45.9085C65.807 45.9811 65.969 45.977 66.1481 45.8961C66.515 45.696 66.788 45.4831 66.9672 45.2573C66.9928 45.2147 67.0995 45.0975 67.2873 44.9058C67.7396 44.3946 68.0725 43.9131 68.2861 43.4614C68.38 43.2568 68.5379 43.0907 68.7597 42.963ZM62.0602 32.2139L61.9771 32.2074C61.8493 32.0581 61.7748 31.977 61.7535 31.9642C61.7066 31.9216 61.6363 31.8938 61.5425 31.8809C61.372 31.8509 61.2973 31.9148 61.3185 32.0726C61.3269 32.1792 61.3695 32.241 61.4462 32.2581C61.523 32.2753 61.5976 32.2838 61.6701 32.2839C61.7042 32.2754 61.8172 32.2563 62.009 32.2266L62.0602 32.2139ZM62.1583 29.5537C62.0474 29.6175 61.9685 29.7006 61.9215 29.8029C61.8788 29.9222 61.9213 30.0203 62.0492 30.0971C62.1131 30.1356 62.1855 30.1356 62.2666 30.0973C62.4073 30.0079 62.4373 29.9099 62.3564 29.8032C62.335 29.7904 62.2584 29.7008 62.1264 29.5344C62.1392 29.5131 62.1776 29.4492 62.2416 29.3427L62.1585 29.3362L62.1583 29.5537ZM71.8458 38.4442C71.7819 38.3333 71.7287 38.2289 71.6862 38.1308C71.6991 38.037 71.7268 38.0391 71.7693 38.1372C71.7352 38.1457 71.7096 38.1521 71.6926 38.1563C71.7778 38.2076 71.8267 38.295 71.8394 38.4187L71.8458 38.4442ZM62.7301 41.8837C62.7344 41.9007 62.7365 41.9092 62.7365 41.9092L62.7685 41.9284L62.7301 41.8837ZM60.3662 47.0105C60.5069 46.9935 60.5857 46.983 60.6028 46.9787C60.9567 46.9449 61.1018 46.7638 61.0381 46.4355C61.0466 46.4696 60.9892 46.2393 60.866 45.7447C60.7598 45.2458 60.6749 44.8684 60.6111 44.6126C60.5432 44.3397 60.5306 44.0711 60.5734 43.8068C60.5992 43.5467 60.6037 43.3464 60.5867 43.2057C60.5698 43.0649 60.5784 42.9541 60.6126 42.8731C60.6638 42.7879 60.6938 42.6536 60.7024 42.4703C60.7324 42.2998 60.773 42.1719 60.8243 42.0867C60.8672 41.6775 60.8909 41.4451 60.8952 41.3897C60.9081 41.2235 60.953 41.0764 61.0298 40.9486L60.9979 40.9294C61.1511 41.181 61.2042 41.4305 61.1571 41.6777C61.1656 41.7118 61.1827 41.7438 61.2082 41.7737C61.2764 41.8292 61.3424 41.8399 61.4064 41.8058C61.4533 41.776 61.5131 41.7249 61.5856 41.6525C61.7221 41.546 61.8948 41.4758 62.1038 41.4419C62.1208 41.4376 62.1549 41.4291 62.2061 41.4164L62.0846 41.4738C62.0506 41.3374 62.0315 41.2606 62.0272 41.2436C62.0103 41.1029 62.0572 41.0006 62.1681 40.9367C62.3217 40.826 62.3538 40.7003 62.2644 40.5595C62.2559 40.5254 62.2453 40.4828 62.2325 40.4316C62.173 40.2653 62.2008 40.1225 62.316 40.0032C62.4483 39.8797 62.4953 39.7049 62.4571 39.4789C62.4402 39.3382 62.3678 39.2657 62.2399 39.2613C62.1461 39.2484 62.08 39.274 62.0416 39.3379L61.9263 39.5296C61.8494 39.6575 61.7556 39.7171 61.6448 39.7085C61.3634 39.6699 61.0841 39.7847 60.8067 40.0531C60.8366 40.0275 60.779 40.1234 60.6338 40.3407C60.5997 40.4217 60.5336 40.4472 60.4355 40.4173C60.3929 40.3917 60.3674 40.3618 60.3589 40.3277C60.2483 40.0292 60.2954 39.782 60.5002 39.586C60.5002 39.586 60.4938 39.5967 60.481 39.618C60.4981 39.4688 60.5067 39.3942 60.5067 39.3942C60.5366 39.2961 60.5367 39.2237 60.5069 39.1767C60.3962 39.0232 60.3409 38.8377 60.3411 38.6202C60.359 37.5288 60.4537 36.4908 60.625 35.5061C60.6593 35.3527 60.6764 35.2397 60.6765 35.1672C60.6553 34.937 60.7218 34.4766 60.8758 33.7861C61.2211 33.8631 61.4044 33.908 61.4257 33.9208C61.5578 33.9422 61.6026 33.9039 61.5601 33.8058C61.5345 33.776 61.4962 33.7674 61.445 33.7801C61.3896 33.7758 61.1999 33.7778 60.8758 33.7861C60.6542 33.7688 60.5264 33.6558 60.4924 33.4468C60.3734 32.9692 60.3738 32.4981 60.4936 32.0335C60.4808 32.0548 60.6047 31.6435 60.8655 30.7996C60.9767 30.3734 61.1773 30.0517 61.4674 29.8345C61.5869 29.7322 61.6701 29.5938 61.7172 29.419C61.9396 28.5665 62.0892 28.0039 62.1662 27.7311C62.2004 27.5776 62.2069 27.4583 62.1857 27.373C62.1346 27.2408 62.1392 26.9317 62.1992 26.4457C62.2122 26.2795 62.2677 26.1388 62.3659 26.0238C62.5536 25.8321 62.6603 25.7149 62.6859 25.6723C62.7115 25.6297 62.7585 25.5274 62.8268 25.3655C62.8226 25.3484 62.8311 25.3101 62.8525 25.2504C62.8828 24.7175 63.0857 24.1869 63.4613 23.6585C63.901 23.0237 64.6369 22.4509 65.669 21.9401C66.3385 21.719 66.8652 21.6149 67.2488 21.6281C68.0162 21.6543 68.6769 21.7614 69.231 21.9494C69.6317 22.1032 70.0025 22.2101 70.3435 22.2701C70.9317 22.3772 71.3663 22.7399 71.6472 23.3583C72.0131 24.1729 72.2408 24.7593 72.33 25.1175C72.449 25.5226 72.6022 25.883 72.7895 26.1986C72.8832 26.3564 72.947 26.5398 72.9809 26.7488C73.2145 27.8318 73.3971 28.7102 73.5287 29.3839C73.5839 29.6782 73.6071 29.9894 73.5983 30.3177C73.598 30.7525 73.6379 31.4944 73.718 32.5432C73.8531 34.1762 73.8669 35.5042 73.7595 36.5273C73.6607 37.3671 73.6046 38.2325 73.5911 39.1236C73.5953 39.2131 73.5802 39.4071 73.5458 39.7055C73.5158 39.9484 73.5092 40.1403 73.5262 40.281C73.5429 40.6391 73.434 40.9652 73.1992 41.2592C73.1437 41.3273 73.1352 41.4019 73.1735 41.483C73.2969 41.6877 73.333 41.8689 73.2817 42.0266C73.2732 42.065 73.2389 42.2547 73.1789 42.5957C73.1105 42.9026 73.0762 43.056 73.0762 43.056C72.9607 43.5377 72.7345 43.8296 72.3977 43.9316C72.3166 43.9699 72.2782 44.0338 72.2824 44.1234C72.2866 44.2129 72.2972 44.2918 72.3142 44.36C72.3908 44.5221 72.3757 44.716 72.2689 44.9419C72.1494 45.1891 71.9508 45.5193 71.6734 45.9326C71.2678 46.559 71.0971 46.8189 71.1611 46.7124C70.8751 47.1641 70.4932 47.5581 70.0155 47.8945C69.222 48.4907 68.5352 48.9336 67.9552 49.223C67.84 49.2698 67.6908 49.3251 67.5074 49.3889C67.388 49.4186 67.2772 49.41 67.1749 49.363C67.1152 49.3417 67.0236 49.3011 66.9 49.2413C66.7935 49.1773 66.7018 49.1367 66.6251 49.1196C66.4802 49.047 66.3416 49.0725 66.2094 49.196C66.1838 49.2386 66.1411 49.2855 66.0814 49.3366C66.0429 49.4005 66.0088 49.4452 65.9789 49.4708C65.7485 49.7093 65.4969 49.7901 65.2241 49.7132C64.913 49.6276 64.41 49.5356 63.7151 49.4369C63.6427 49.4369 63.5297 49.4197 63.3762 49.3855C63.2228 49.3513 63.1098 49.3341 63.0374 49.3341C62.8882 49.3169 62.773 49.3274 62.692 49.3658C62.4318 49.4849 62.1377 49.4314 61.8096 49.2052C61.6775 49.1113 61.618 48.9812 61.6309 48.8149C61.6267 48.7254 61.6268 48.6529 61.6311 48.5975C61.6099 48.4397 61.5503 48.3459 61.4522 48.316C61.2306 48.2262 61.0645 48.0684 60.9538 47.8423C60.8049 47.5352 60.5983 47.2516 60.3342 46.9913L60.3662 47.0105Z" fill="white"/>
<defs>
<filter id="filter0_f" x="1.05762" y="21.1831" width="82.094" height="39.884" filterUnits="userSpaceOnUse" color-interpolation-filters="sRGB">
<feFlood flood-opacity="0" result="BackgroundImageFix"/>
<feBlend mode="normal" in="SourceGraphic" in2="BackgroundImageFix" result="shape"/>
<feGaussianBlur stdDeviation="0.5" result="effect1_foregroundBlur"/>
</filter>
<linearGradient id="paint0_linear" x1="76.3875" y1="-14.1779" x2="18.7392" y2="12.3547" gradientUnits="userSpaceOnUse">
<stop stop-color="#952A97"/>
<stop offset="1" stop-color="#13A4CD"/>
</linearGradient>
</defs>
</svg>
