<svg width="21" height="20" viewBox="0 0 21 20" fill="none" xmlns="http://www.w3.org/2000/svg">
<path d="M10.4654 11.2241C13.5689 11.2241 16.0861 8.70688 16.0861 5.60346C16.0861 2.50003 13.5688 0 10.4654 0C7.36198 0 4.84473 2.51725 4.84473 5.60346C4.84473 8.68966 7.36194 11.2241 10.4654 11.2241ZM10.4654 1.46552C12.7413 1.46552 14.6033 3.32758 14.6033 5.60346C14.6033 7.87934 12.7413 9.74136 10.4654 9.74136C8.18956 9.74136 6.32747 7.8793 6.32747 5.60342C6.32747 3.32754 8.18952 1.46552 10.4654 1.46552Z" fill="white"/>
<path d="M0.741371 20.0001H20.2586C20.6724 20.0001 21 19.6725 21 19.2588C21 15.3794 17.8448 12.207 13.9482 12.207H7.05172C3.17241 12.207 0 15.3622 0 19.2588C0 19.6725 0.327581 20.0001 0.741371 20.0001ZM7.05172 13.6898H13.9482C16.7758 13.6898 19.1034 15.7932 19.4655 18.5173H1.53447C1.89653 15.8105 4.22415 13.6898 7.05172 13.6898Z" fill="white"/>
</svg>
